<svg width="36" height="24" viewBox="0 0 36 24" fill="none" xmlns="http://www.w3.org/2000/svg">
<path d="M29.7563 13.9948C29.212 15.4411 28.3282 16.7354 27.1791 17.7688C26.0301 18.8021 24.6495 19.5441 23.1538 19.9323C19.7338 21.0248 21.4081 24.6823 24.4363 23.7442C31.5613 21.7492 35.8125 16.3223 35.8125 9.23291C35.8125 3.68728 32.6538 0.124781 27.7494 0.124781C22.845 0.12478 19.7694 3.08166 19.7694 7.67728C19.7694 14.256 26.0038 15.8235 29.7563 13.9948ZM10.1744 13.9948C9.63016 15.4411 8.7463 16.7354 7.59725 17.7688C6.44821 18.8021 5.06765 19.5441 3.57188 19.9323C0.187501 21.0129 1.79063 24.6823 4.85438 23.7442C11.9794 21.7373 16.2306 16.3223 16.2306 9.22103C16.2306 3.68728 13.06 0.124779 8.1675 0.124779C3.275 0.124779 0.187502 3.08165 0.187501 7.67728C0.187501 14.2323 6.38625 15.8354 10.1744 13.9948V13.9948Z" fill="#412371"/>
</svg>
