<svg width="36" height="24" viewBox="0 0 36 24" fill="none" xmlns="http://www.w3.org/2000/svg">
<path d="M6.24375 10.005C6.78797 8.55865 7.67183 7.26431 8.82087 6.23099C9.96992 5.19768 11.3505 4.45567 12.8462 4.06747C16.2662 2.97497 14.5919 -0.682525 11.5637 0.2556C4.43875 2.2506 0.1875 7.67747 0.1875 14.7668C0.1875 20.3125 3.34625 23.875 8.25062 23.875C13.155 23.875 16.2306 20.9181 16.2306 16.3225C16.2306 9.74372 9.99625 8.17622 6.24375 10.005ZM25.8256 10.005C26.3698 8.55865 27.2537 7.26431 28.4027 6.23099C29.5518 5.19768 30.9324 4.45567 32.4281 4.06747C35.8125 2.98685 34.2094 -0.682525 31.1456 0.2556C24.0206 2.26247 19.7694 7.67747 19.7694 14.7787C19.7694 20.3125 22.94 23.875 27.8325 23.875C32.725 23.875 35.8125 20.9181 35.8125 16.3225C35.8125 9.76747 29.6138 8.16435 25.8256 10.005V10.005Z" fill="#412371"/>
</svg>
